<svg width="48" height="45" viewBox="0 0 48 45" fill="none" xmlns="http://www.w3.org/2000/svg">
<path fill-rule="evenodd" clip-rule="evenodd" d="M0.758017 27.867L24 45L23.9999 44.9997L24.0001 44.9999L47.2411 27.867C47.909 27.3798 48.1494 26.5204 47.909 25.7558L45.3711 17.4194L45.0113 17.8837L45.1617 17.461L45.1764 17.4466L45.1718 17.4324L45.1765 17.4194H45.1676L39.7582 0.648401C39.4818 -0.216134 38.1665 -0.216134 37.8889 0.648401L32.4794 17.4194H15.5206L10.1111 0.648401C9.83343 -0.216134 8.51814 -0.216134 8.24181 0.648401L2.83233 17.4194H2.82373L2.82824 17.432L2.82353 17.4466L2.83865 17.4613L2.9915 17.8911L2.62591 17.4194L0.0909111 25.7558C-0.149247 26.5204 0.0909111 27.3798 0.758017 27.867Z" fill="#F6F5F5"/>
</svg>
