<svg width="45" height="45" viewBox="0 0 45 45" fill="none" xmlns="http://www.w3.org/2000/svg">
<path d="M41.4013 0H3.84475C1.79343 0 0 1.47695 0 3.50482V41.1435C0 43.1831 1.79343 45 3.84475 45H41.3896C43.4527 45 44.9999 43.1714 44.9999 41.1435V3.50482C45.0117 1.47695 43.4527 0 41.4013 0ZM13.9489 37.5098H7.50194V17.4655H13.9489V37.5098ZM10.9481 14.4178H10.9013C8.83823 14.4178 7.50194 12.8823 7.50194 10.9599C7.50194 9.00234 8.87339 7.50195 10.9833 7.50195C13.0932 7.50195 14.3826 8.99062 14.4295 10.9599C14.4295 12.8823 13.0932 14.4178 10.9481 14.4178ZM37.5097 37.5098H31.0627V26.5499C31.0627 23.9242 30.125 22.1308 27.7924 22.1308C26.0106 22.1308 24.9557 23.3381 24.4868 24.5103C24.311 24.9323 24.2641 25.5066 24.2641 26.0927V37.5098H17.8171V17.4655H24.2641V20.2553C25.2018 18.919 26.6671 16.9966 30.0781 16.9966C34.3097 16.9966 37.5097 19.7864 37.5097 25.7997V37.5098Z" fill="#F6F5F5"/>
</svg>
