<svg xmlns="http://www.w3.org/2000/svg" fill="none" viewBox="0 0 404 404"  xmlns:v="https://vecta.io/nano"><mask id="A" x="0" y="0" width="404" height="404" mask-type="alpha" maskUnits="userSpaceOnUse"><circle cx="202" cy="202" r="202" fill="#fca326"/></mask><g mask="url(#A)"><circle cx="202" cy="202" r="202" fill="#fca326"/><path d="M381 345.75l-122.71-14.004h-108.4L11.24 345.75v84.309h354.6l15.15-84.309z" fill="#0b0203"/><g fill="#ffd293"><rect x="118.07" y="163.06" width="31.523" height="60.113" rx="15.761"/><rect x="258.09" y="160.86" width="31.523" height="60.113" rx="15.761"/></g><g fill="#ffe8c9"><path d="M151.06 286.22h108.5v51.316h-108.5z"/><rect transform="matrix(-1 0 0 1 277.88 52.366)" width="150.28" height="262.44" rx="73.308"/><path d="M124 81h44v47h-44z"/></g><path d="m205.3 314.81h-3.666c-25.749 0-48.398-13.275-61.474-33.355l9.043-8.431c13.311 15.944 31.884 26.758 52.431 26.758h3.666c20.547 0 39.12-10.814 52.431-26.758l9.043 8.431c-13.077 20.08-35.725 33.355-61.474 33.355z" fill="#ffd08e"/><path d="m192.11 163.79c9.531-2.566 15.468-2.639 24.559 0" stroke="#0b0203" stroke-width="5.865"/><path d="m242.69 242.97h-74.041c2.321 6.353 12.609 19.06 35.188 19.06s35.31-12.707 38.853-19.06z" fill="#000"/><path d="m227.3 267.89h-43.252c1.357 2.933 7.366 8.797 20.556 8.797s20.627-5.864 22.696-8.797z" fill="#ffd08e"/><path d="M259.52 337.38H151.13c3.399 7.877 18.458 23.629 51.51 23.629s51.689-15.752 56.876-23.629z" fill="#ffe8c9"/><path d="m234.63 242.97h-57.914c1.816 4.642 9.863 13.928 27.524 13.928s27.619-9.286 30.39-13.928z" fill="#fff"/><g fill="#000"><circle cx="241.96" cy="168.19" r="7.331"/><circle cx="165.72" cy="168.19" r="7.331"/></g><g stroke="#000" stroke-linecap="round" stroke-width="6.598"><path d="M269.45 148.48c-14.295-5.94-28.957-4.766-42.886 0m-87.974 0c14.295-5.94 28.957-4.766 42.886 0"/></g><g fill="#000"><path d="m170.85 225.5c17.887-11.436 29.934-1.588 33.722 4.765v5.498h-51.316c0-7.331 11.729-9.896 17.594-10.263z"/><path d="m237.56 225.5c-17.887-11.436-29.935-1.588-33.722 4.765v5.498h51.316c0-7.331-11.73-9.896-17.594-10.263z"/></g><path d="M199 167.92c1.646-1.408 3.46-1.899 4.884-1.923l.01.064.494-.053.494.053.01-.064c1.425.024 3.239.515 4.885 1.923 2.056 1.758 3.891 4.985 4.326 10.635l.007.095 14.411 21.801.106.043c1.126.45 3.435 2.196 3.435 5.524 0 2.194-.187 4.846-1.545 6.949-1.336 2.068-3.86 3.681-8.718 3.681h-7.697v.366c0 1.043-.01 2.46-1.136 3.642-1.117 1.172-3.414 2.194-8.189 2.222-7.468-.057-10.102-4.087-10.102-5.864v-.366h-7.697c-4.859 0-7.383-1.613-8.719-3.681-1.357-2.103-1.545-4.755-1.545-6.949 0-3.328 2.31-5.074 3.435-5.524l.107-.043 14.411-21.801.007-.095c.434-5.65 2.269-8.877 4.326-10.635z" fill="#ffc370" fill-rule="evenodd"/><path d="M245.9 203.08c-30.497 0-32.256-25.169-29.324-37.753.855-2.933 7.331-9.677 26.391-13.196s28.468 5.376 30.79 10.263c3.421 13.562 2.639 40.686-27.857 40.686z" stroke="#0b0203" stroke-width="3.665"/><g fill="#0b0203"><path d="M283.24 180.22c-.855-9.53-2.433-16.498 4.898-10.926 3.176 2.199 10.497-12.826 7.564-47.721 1.222-11.362-2.712-37.534-28.223-51.316-6.232-13.929-25.512-42.666-52.783-46.184-8.186-3.543-27.93-8.504-41.419 0-8.186 3.055-24.851 11.509-26.024 20.893-7.331 2.566-21.553 11.216-19.794 25.291-4.52 7.087-13.122 27.271-11.363 51.316l4.532 45.521c.411.313.805.577 1.178.828 2.398 1.611 3.953 2.656 3.953 12.298 1.589 2.077 9.911 8.064 9.031-6.598s-2.81-22.725-3.665-24.925c-1.596-5.555-2.969-12.604-3.502-20.143a50.19 50.19 0 0 1-.764-8.744c0-6.069 1.085-11.885 3.071-17.265 2.872-9.814 8.474-18.483 18.265-23.63a49.62 49.62 0 0 1 28.514-8.954h47.65c26.215 0 47.704 20.236 49.699 45.939 1.172 4.654 1.851 9.611 1.851 14.837 0 28.737 2.199 44.962 3.299 49.483 1.392 2.81 4.147 7.404 4.032 3.299v-3.299z" stroke="#000" stroke-width=".733"/><path d="M285.94 167.83c-2.346 0-8.308 3.666-10.996 5.498l-1.833-14.661c4.399 2.345 10.386 2.688 12.829 2.565v6.598zm-164.21.73c2.345 0 8.308 3.666 10.996 5.498l1.833-14.661c-4.399 2.346-10.386 2.688-12.829 2.566v6.597z"/></g><path d="M162.7 203.08c30.496 0 32.256-25.169 29.324-37.753-.856-2.933-7.331-9.677-26.392-13.196s-28.468 5.376-30.789 10.263c-3.421 13.562-2.639 40.686 27.857 40.686z" stroke="#0b0203" stroke-width="3.665"/></g></svg>