<svg xmlns="http://www.w3.org/2000/svg" fill="none" viewBox="0 0 38 45"  xmlns:v="https://vecta.io/nano"><path d="M37.996 14.691c0-3.244-1.286-5.858-3.375-7.834.366-1.119.848-3.606-.488-6.793 0 0-2.372-.712-7.726 2.69-2.147-.506-4.35-.758-6.561-.749-2.457 0-4.945.292-7.26.9C7.058-.668 4.622.061 4.622.061c-1.593 3.778-.611 6.576-.309 7.269-1.88 1.914-3.011 4.363-3.011 7.351 0 2.272.273 4.293.937 6.062l.692 1.497c1.872 3.301 5.55 5.43 12.089 6.101-.924.591-1.885 1.593-2.261 3.297-1.265.573-5.271 1.976-7.673-1.931 0 0-1.348-2.348-3.923-2.526 0 0-2.5-.035-.17 1.477 0 0 1.665.751 2.824 3.555 0 0 1.501 4.79 8.761 3.258v4.944s-.162 1.753-1.846 2.338c0 0-.999.638.072 1.017 0 0 4.696.356 4.696-3.281v-5.406s-.192-2.141.914-2.872v8.86s-.068 2.109-1.227 2.906c0 0-.771 1.321.922.957 0 0 3.23-.432 3.373-4.023l.075-8.965h.773l.07 8.965c.162 3.575 3.386 4.023 3.386 4.023 1.689.366.914-.957.914-.957-1.15-.796-1.233-2.906-1.233-2.906v-8.789c1.107.822.928 2.8.928 2.8v5.406c0 3.635 4.685 3.281 4.685 3.281 1.075-.38.077-1.019.077-1.019-1.689-.585-1.846-2.338-1.846-2.338v-7.079c0-2.753-1.222-4.205-2.421-4.98 6.978-.65 10.318-2.798 11.866-6.116-.032.055.554-1.485.554-1.485.532-1.757.692-3.794.692-6.06h-.004v-.002z" fill="#000"/></svg>