<svg fill="none" viewBox="0 0 38 45" xmlns="http://www.w3.org/2000/svg">
<path d="m37.996 14.691c0-3.2439-1.2862-5.8579-3.3753-7.8337 0.3663-1.1188 0.8476-3.6059-0.4876-6.7926 0 0-2.3723-0.71178-7.726 2.6896-2.1469-0.50625-4.3504-0.75766-6.561-0.7486-2.4575 0-4.9448 0.29249-7.2596 0.89995-5.5283-3.5732-7.9644-2.8451-7.9644-2.8451-1.5929 3.7778-0.61118 6.5758-0.30878 7.2692-1.8804 1.9144-3.0112 4.3627-3.0112 7.351 0 2.2724 0.27258 4.2932 0.93699 6.0624l0.6921 1.4972c1.8719 3.3012 5.5496 5.4304 12.089 6.1013-0.9242 0.5911-1.8846 1.5933-2.2615 3.2971-1.265 0.5727-5.2706 1.9758-7.6727-1.9308 0 0-1.348-2.3481-3.9226-2.526 0 0-2.5001-0.0348-0.17036 1.4767 0 0 1.6653 0.7506 2.8238 3.5548 0 0 1.5013 4.7902 8.7609 3.2582v4.9436s-0.1619 1.7529-1.8463 2.3379c0 0-0.99878 0.6381 0.0724 1.0165 0 0 4.6956 0.3559 4.6956-3.2807v-5.4059s-0.1917-2.1414 0.9136-2.8716v8.8604s-0.0682 2.1088-1.2267 2.9064c0 0-0.7708 1.3213 0.9221 0.9573 0 0 3.2305-0.4316 3.3732-4.0232l0.0745-8.9648h0.7731l0.0702 8.9648c0.1619 3.5752 3.386 4.0232 3.386 4.0232 1.6887 0.3661 0.9136-0.9573 0.9136-0.9573-1.15-0.7956-1.233-2.9064-1.233-2.9064v-8.7888c1.1073 0.8222 0.9284 2.8 0.9284 2.8v5.4059c0 3.6346 4.685 3.2807 4.685 3.2807 1.0754-0.3804 0.0767-1.0186 0.0767-1.0186-1.6888-0.5849-1.8463-2.3378-1.8463-2.3378v-7.0789c0-2.7531-1.2224-4.2053-2.4213-4.9805 6.9784-0.6504 10.318-2.798 11.866-6.1156-0.0319 0.0553 0.5537-1.4849 0.5537-1.4849 0.5324-1.7569 0.6921-3.7941 0.6921-6.0603h-0.0043v-0.0021z" fill="#F6F5F5"/>
</svg>
