<svg fill="none" viewBox="0 0 48 45" xmlns="http://www.w3.org/2000/svg">
<path d="m0.75802 27.867l23.242 17.133-1e-4 -3e-4 2e-4 2e-4 23.241-17.133c0.6679-0.4872 0.9083-1.3466 0.6679-2.1112l-2.5379-8.3364-0.3598 0.4643 0.1504-0.4227 0.0147-0.0144-0.0046-0.0142 0.0047-0.013h-0.0089l-5.4094-16.771c-0.2764-0.86454-1.5917-0.86454-1.8693 0l-5.4095 16.771h-16.959l-5.4095-16.771c-0.27767-0.86454-1.593-0.86454-1.8693 0l-5.4095 16.771h-0.0086l0.00451 0.0126-0.00471 0.0146 0.01512 0.0147 0.15285 0.4298-0.36559-0.4717-2.535 8.3364c-0.24016 0.7646 0 1.624 0.66711 2.1112z" clip-rule="evenodd" fill="#F6F5F5" fill-rule="evenodd"/>
</svg>
