<svg fill="none" viewBox="0 0 45 45" xmlns="http://www.w3.org/2000/svg">
<path d="m41.401 0h-37.557c-2.0513 0-3.8448 1.477-3.8448 3.5048v37.639c0 2.0396 1.7934 3.8565 3.8448 3.8565h37.545c2.0631 0 3.6103-1.8286 3.6103-3.8565v-37.639c0.0118-2.0279-1.5472-3.5048-3.5986-3.5048zm-27.452 37.51h-6.447v-20.044h6.447v20.044zm-3.0008-23.092h-0.0468c-2.0631 0-3.3994-1.5355-3.3994-3.4579 0-1.9576 1.3714-3.458 3.4814-3.458 2.1099 0 3.3993 1.4887 3.4462 3.458 0 1.9224-1.3363 3.4579-3.4814 3.4579zm26.562 23.092h-6.447v-10.96c0-2.6257-0.9377-4.4191-3.2703-4.4191-1.7818 0-2.8367 1.2073-3.3056 2.3795-0.1758 0.422-0.2227 0.9963-0.2227 1.5824v11.417h-6.447v-20.044h6.447v2.7898c0.9377-1.3363 2.403-3.2587 5.814-3.2587 4.2316 0 7.4316 2.7898 7.4316 8.8031v11.71z" fill="#F6F5F5"/>
</svg>
