<svg xmlns="http://www.w3.org/2000/svg" fill="none" viewBox="0 0 45 45"><path d="M41.401 0H3.844C1.793 0-.001 1.477-.001 3.505v37.639c0 2.04 1.793 3.856 3.845 3.856h37.545c2.063 0 3.61-1.829 3.61-3.856V3.505C45.011 1.477 43.452 0 41.401 0zM13.949 37.51H7.502V17.466h6.447V37.51zm-3.001-23.092h-.047c-2.063 0-3.399-1.536-3.399-3.458 0-1.958 1.371-3.458 3.481-3.458s3.399 1.489 3.446 3.458c0 1.922-1.336 3.458-3.481 3.458zM37.51 37.51h-6.447V26.55c0-2.626-.938-4.419-3.27-4.419-1.782 0-2.837 1.207-3.306 2.38-.176.422-.223.996-.223 1.582V37.51h-6.447V17.466h6.447v2.79c.938-1.336 2.403-3.259 5.814-3.259 4.232 0 7.432 2.79 7.432 8.803v11.71z" fill="#000"/></svg>