<svg fill="none" viewBox="0 0 57 32" xmlns="http://www.w3.org/2000/svg">
<path d="m31.754 16c0 8.8366-7.1085 16-15.878 16-8.769 0-15.877-7.1616-15.877-16 0-8.8386 7.1085-16 15.877-16 8.7685 0 15.878 7.1632 15.878 16zm17.418 0c0 8.3185-3.5545 15.061-7.9387 15.061-4.3843 0-7.9388-6.745-7.9388-15.061 0-8.3163 3.5545-15.061 7.9388-15.061 4.3842 0 7.9387 6.745 7.9387 15.061zm7.1241 0c0 7.453-1.2502 13.494-2.7922 13.494-1.5419 0-2.7921-6.0435-2.7921-13.494 0-7.4508 1.2502-13.494 2.7927-13.494 1.5424 0 2.7916 6.0419 2.7916 13.494z" fill="#F6F5F5"/>
</svg>
