<svg width="57" height="32" viewBox="0 0 57 32" fill="none" xmlns="http://www.w3.org/2000/svg">
<path d="M31.7544 15.9997C31.7544 24.8363 24.6459 32 15.8769 32C7.10793 32 0 24.8384 0 15.9997C0 7.16106 7.10847 0 15.8769 0C24.6454 0 31.7544 7.16321 31.7544 15.9997ZM49.1722 15.9997C49.1722 24.3182 45.6177 31.0611 41.2335 31.0611C36.8492 31.0611 33.2947 24.3161 33.2947 15.9997C33.2947 7.68339 36.8492 0.938367 41.2335 0.938367C45.6177 0.938367 49.1722 7.68339 49.1722 15.9997ZM56.2963 15.9997C56.2963 23.4527 55.0461 29.4941 53.5041 29.4941C51.9622 29.4941 50.712 23.4506 50.712 15.9997C50.712 8.54891 51.9622 2.50537 53.5047 2.50537C55.0471 2.50537 56.2963 8.54729 56.2963 15.9997Z" fill="#F6F5F5"/>
</svg>
