<?xml version="1.0" encoding="UTF-8"?><svg fill="none" viewBox="0 0 404 404" xmlns="http://www.w3.org/2000/svg"><mask id="a" x="0" y="0" width="404" height="404" mask-type="alpha" maskUnits="userSpaceOnUse"><circle cx="202" cy="202" r="202" fill="#FCA326"/></mask><g mask="url(#a)"><circle cx="202" cy="202" r="202" fill="#FCA326"/><path d="m386.75 345.75-122.71-14.004h-108.4l-138.65 14.004v84.309h354.6l15.149-84.309z" fill="#0B0203"/><path d="m148.13 269c-0.552 0-1 0.448-1 1v67c0 0.303 0.135 0.575 0.348 0.758 4.016 8.208 19.234 23.242 51.454 23.242 31.989 0 50.551-14.819 56.552-23.064 0.378-0.143 0.646-0.508 0.646-0.936v-67c0-0.552-0.447-1-1-1h-107z" fill="#FFE8C9"/><rect x="114.2" y="163.06" width="31.523" height="60.113" rx="15.761" fill="#FFD293"/><rect x="254.22" y="160.86" width="31.523" height="60.113" rx="15.761" fill="#FFD293"/><path d="m274.42 126.07c0-40.354-32.714-73.068-73.068-73.068h-4.147c-40.354 0-73.068 32.714-73.068 73.068v69.406c0 29.482 5.356 59.406 20.62 84.628 12.755 21.079 27.764 35.342 54.522 35.342 25.134 0 39.727-13.503 51.967-32.668 17.091-26.762 23.174-59.11 23.174-90.863v-65.845z" fill="#FFE8C9"/><path d="m255.73 274.98-2.126-1.982c-13.31 15.944-31.883 26.758-52.431 26.758h-3.665c-20.548 0-39.121-10.814-52.431-26.758l-2.941 2.741c0.807 1.468 1.646 2.922 2.516 4.361 9.741 16.096 20.795 28.218 37.391 33.05 4.986 1.07 10.16 1.634 15.465 1.634h3.665c4.307 0 8.527-0.372 12.629-1.084 16.582-4.231 27.692-15.819 37.34-30.926 1.628-2.549 3.156-5.149 4.588-7.794z" clip-rule="evenodd" fill="#FFD08E" fill-rule="evenodd"/><rect x="120.13" y="81" width="44" height="47" fill="#FFE8C9"/><path d="m188.24 163.79c9.53-2.565 15.468-2.639 24.558 0" stroke="#0B0203" stroke-width="5.8647"/><path d="m238.82 242.97h-74.042c2.322 6.353 12.609 19.06 35.188 19.06s35.311-12.707 38.854-19.06z" fill="#000"/><path d="m223.43 267.89h-43.252c1.356 2.933 7.365 8.797 20.555 8.797s20.627-5.864 22.697-8.797z" fill="#FFD08E"/><path d="m230.76 242.97h-57.913c1.815 4.643 9.862 13.928 27.523 13.928s27.619-9.285 30.39-13.928z" fill="#fff"/><circle cx="238.09" cy="168.19" r="7.3308" fill="#000"/><circle cx="161.85" cy="168.19" r="7.3308" fill="#000"/><path d="m265.58 148.48c-14.295-5.94-28.957-4.765-42.885 0" stroke="#000" stroke-linecap="round" stroke-width="6.5978"/><path d="m134.72 148.48c14.296-5.94 28.957-4.765 42.886 0" stroke="#000" stroke-linecap="round" stroke-width="6.5978"/><path d="m165.73 225.5c17.888-11.436 29.935-1.588 33.722 4.765v5.498h-51.316c0-7.33 11.73-9.896 17.594-10.263z" fill="#000"/><path d="m232.44 225.5c-17.887-11.436-29.934-1.588-33.722 4.765v5.498h51.316c0-7.33-11.729-9.896-17.594-10.263z" fill="#000"/><path d="m200.18 167.05c0.107-0.016 0.221-0.03 0.342-0.039 0.12 9e-3 0.235 0.023 0.342 0.039l0.988 0.152 0.019-0.126c1.053 0.171 2.261 0.64 3.389 1.605 1.802 1.54 3.559 4.488 3.979 9.952l7e-3 0.095 0.02 0.258 0.143 0.217 14.411 21.801 0.172 0.26 0.291 0.117 0.106 0.042c0.862 0.345 2.807 1.789 2.807 4.596 0 2.179-0.199 4.569-1.385 6.406-1.107 1.713-3.266 3.224-7.879 3.224h-8.697v1.366c0 1.057-0.036 2.087-0.86 2.952-0.835 0.877-2.79 1.883-7.463 1.912-3.548-0.028-5.849-0.996-7.24-2.076-1.435-1.115-1.864-2.303-1.864-2.788v-1.366h-8.697c-4.613 0-6.772-1.511-7.878-3.224-1.187-1.837-1.385-4.227-1.385-6.406 0-2.807 1.945-4.251 2.806-4.596l0.107-0.042 0.29-0.117 0.172-0.26 14.411-21.801 0.143-0.217 0.02-0.258 7e-3 -0.095c0.421-5.464 2.178-8.412 3.979-9.952 1.128-0.965 2.336-1.434 3.389-1.605l0.019 0.126 0.989-0.152z" stroke="#FCA326" stroke-width="2"/><path d="m242.03 203.08c-30.497 0-32.256-25.169-29.324-37.753 0.856-2.933 7.331-9.677 26.391-13.196 19.061-3.519 28.469 5.376 30.79 10.263 3.421 13.562 2.639 40.686-27.857 40.686z" stroke="#0B0203" stroke-width="3.6654"/><path d="m279.38 180.22c-0.855-9.53-2.433-16.498 4.898-10.926 3.177 2.199 10.497-12.826 7.565-47.721 1.221-11.362-2.713-37.533-28.224-51.315-6.231-13.929-25.512-42.666-52.782-46.184-8.186-3.5432-27.931-8.5038-41.42 0-8.186 3.0545-24.851 11.509-26.024 20.893-7.331 2.5658-21.553 11.216-19.793 25.292-4.521 7.0865-13.123 27.271-11.363 51.315l4.531 45.521c0.411 0.313 0.805 0.577 1.178 0.828 2.398 1.611 3.954 2.656 3.954 12.298 1.588 2.077 9.91 8.064 9.03-6.598-0.879-14.661-2.81-22.725-3.665-24.924-1.596-5.556-2.969-12.605-3.501-20.144-0.503-2.839-0.765-5.761-0.765-8.744 0-6.069 1.085-11.885 3.071-17.264 2.872-9.8148 8.475-18.483 18.266-23.631 8.079-5.6439 17.91-8.9545 28.513-8.9545h47.651c26.215 0 47.704 20.236 49.698 45.939 1.173 4.654 1.851 9.611 1.851 14.837 0 28.737 2.2 44.963 3.299 49.483 1.392 2.81 4.148 7.404 4.032 3.299v-3.299z" fill="#0B0203" stroke="#000" stroke-width=".73308"/><path d="m282.08 167.83c-2.346 0-8.309 3.666-10.997 5.499l-1.832-14.662c4.398 2.346 10.385 2.688 12.829 2.566v6.597z" fill="#0B0203"/><path d="m117.86 168.56c2.346 0 8.308 3.665 10.996 5.498l1.833-14.662c-4.399 2.346-10.386 2.688-12.829 2.566v6.598z" fill="#0B0203"/><path d="m158.84 203.08c30.497 0 32.256-25.169 29.324-37.753-0.855-2.933-7.331-9.677-26.391-13.196s-28.468 5.376-30.79 10.263c-3.421 13.562-2.639 40.686 27.857 40.686z" stroke="#0B0203" stroke-width="3.6654"/></g></svg>
